<svg id="Capa_1" enable-background="new 0 0 512 512" height="512" viewBox="0 0 512 512" width="512" xmlns="http://www.w3.org/2000/svg"><g><path d="m282.149 403.419h-52.299l-2.894 16.778c-3.107 18.014 10.764 34.482 29.043 34.482 18.28 0 32.15-16.468 29.043-34.482z" fill="#f1d333"/><path d="m285.453 424.023c-.053-1.264-.188-2.54-.41-3.825l-2.894-16.778-41.02-9.46-11.279 9.46-2.894 16.778c-.222 1.285-.357 2.562-.41 3.825z" fill="#ecc32e"/><path d="m384.002 321.549c-3.36-5.82-5.129-12.421-5.129-19.142v-67.107c0-54.455-35.424-100.638-84.485-116.76-1.492-.49-2.122-2.049-1.461-3.474 2.884-6.215 4.243-13.276 3.595-20.699-1.42-16.267-15.328-37.046-40.47-37.046-22.596 0-40.734 18.34-40.734 40.682 0 5.982 1.298 11.667 3.628 16.788.717 1.576-.062 3.326-1.705 3.872-48.869 16.231-84.115 62.317-84.115 116.636l.001 67.109c0 6.72-1.769 13.322-5.129 19.142l130.729 26.187zm-142.423-223.547c0-7.965 6.457-14.421 14.421-14.421 7.965 0 14.421 6.457 14.421 14.421s-6.457 14.421-14.421 14.421c-7.965.001-14.421-6.456-14.421-14.421z" fill="#f1d333"/><path d="m337.666 209.545v67.107c0 6.72 1.769 13.322 5.129 19.142l14.869 25.755 19.837 7.974 6.501-7.974c-3.36-5.82-5.129-12.421-5.129-19.142v-67.107c0-52.669-33.139-97.6-79.703-115.077 23.704 22.4 38.496 54.134 38.496 89.322z" fill="#ecc32e"/><g fill="#61a2f9"><path d="m512 246.11c0 40.716-14.71 77.988-39.1 106.798-4.83 5.706-13.547 5.982-18.833.696l-.07-.07c-4.761-4.761-4.988-12.342-.646-17.487 20.514-24.308 32.894-55.698 32.894-89.937 0-34.231-12.382-65.629-32.89-89.939-4.34-5.144-4.112-12.722.645-17.482l.075-.075c5.286-5.289 14.006-5.014 18.837.695 24.387 28.819 39.088 66.096 39.088 106.801z"/><path d="m460.491 246.11c0 26.173-8.876 50.321-23.781 69.58-4.754 6.142-13.805 6.752-19.297 1.26l-.016-.016c-4.591-4.591-5.009-11.86-1.039-16.997 11.516-14.901 18.378-33.574 18.378-53.826s-6.862-38.925-18.378-53.826c-3.97-5.137-3.552-12.407 1.039-16.998l.016-.016c5.492-5.492 14.543-4.883 19.297 1.26 14.905 19.258 23.781 43.406 23.781 69.579z"/><path d="m0 246.11c0 40.716 14.71 77.988 39.1 106.798 4.83 5.706 13.547 5.982 18.833.696l.07-.07c4.761-4.761 4.988-12.342.646-17.487-20.514-24.308-32.894-55.698-32.894-89.937 0-34.231 12.382-65.629 32.89-89.939 4.34-5.144 4.112-12.722-.645-17.482l-.075-.075c-5.286-5.289-14.006-5.014-18.837.695-24.387 28.819-39.088 66.096-39.088 106.801z"/><path d="m51.509 246.11c0 26.173 8.876 50.321 23.781 69.58 4.754 6.142 13.805 6.752 19.297 1.26l.016-.016c4.591-4.591 5.009-11.86 1.039-16.997-11.516-14.901-18.378-33.574-18.378-53.826s6.862-38.925 18.378-53.826c3.97-5.137 3.552-12.407-1.039-16.998l-.016-.016c-5.492-5.492-14.543-4.883-19.297 1.26-14.905 19.258-23.781 43.406-23.781 69.579z"/></g><path d="m256 146.41c-7.469 0-14.635-1.658-21.299-4.927-3.831-1.879-5.413-6.509-3.534-10.34 1.879-3.832 6.508-5.413 10.34-3.534 4.528 2.221 9.404 3.348 14.493 3.348 5.044 0 9.881-1.107 14.376-3.29 3.837-1.864 8.462-.265 10.325 3.574 1.865 3.838.265 8.461-3.574 10.325-6.616 3.215-13.724 4.844-21.127 4.844z" fill="#ecc32e"/><path d="m384.002 321.549h-256.004l-43.482 75.313c-1.683 2.914.421 6.557 3.786 6.557h335.397c3.365 0 5.468-3.643 3.786-6.557z" fill="#f6e266"/><path d="m427.484 396.862-43.482-75.314h-26.338l6.003 10.397c11.731 20.319-2.933 45.718-26.396 45.718h-241.672l-11.084 19.198c-1.683 2.914.421 6.557 3.786 6.557h335.397c3.366.001 5.469-3.641 3.786-6.556z" fill="#f4dd45"/></g></svg>