<svg id="Capa_1" enable-background="new 0 0 512 512" height="512" viewBox="0 0 512 512" width="512" xmlns="http://www.w3.org/2000/svg"><g><g><path d="m417.978 71.173h80.512c3.256 0 5.187-3.641 3.361-6.336l-15.694-23.168c-.931-1.375-.931-3.179 0-4.553l15.694-23.168c1.826-2.696-.105-6.336-3.361-6.336h-80.512z" fill="#dd5790"/></g><g><path d="m417.978 150.547c-4.204 0-7.612-3.408-7.612-7.611v-135.325c0-4.204 3.408-7.611 7.612-7.611s7.611 3.408 7.611 7.611v135.324c.001 4.204-3.407 7.612-7.611 7.612z" fill="#5766cb"/></g><path d="m130.928 512h-114.923c-5.605 0-10.149-4.544-10.149-10.149v-123.228c0-5.605 4.544-10.149 10.149-10.149h114.923z" fill="#dd5790"/><path d="m256 512h-125.072v-194.887c0-5.605 4.544-10.149 10.149-10.149h114.923z" fill="#ffe07d"/><path d="m381.072 512h-125.072v-276.902c0-5.605 4.544-10.149 10.149-10.149h114.923z" fill="#5766cb"/><path d="m495.995 512h-114.923v-358.916c0-5.605 4.544-10.149 10.149-10.149h104.775c5.605 0 10.149 4.544 10.149 10.149v348.767c-.001 5.605-4.545 10.149-10.15 10.149z" fill="#80e29d"/><path d="m100.173 368.475h30.755v143.525h-30.755z" fill="#da387d"/><path d="m225.245 306.964h30.755v205.036h-30.755z" fill="#ffd064"/><path d="m350.317 224.95h30.755v287.05h-30.755z" fill="#3342aa"/><path d="m475.388 142.935v369.065h20.607c5.605 0 10.149-4.544 10.149-10.149v-348.767c0-5.605-4.544-10.149-10.149-10.149z" fill="#78d090"/><path d="m374.206 69.665-30.744-6.752c-3.052-.67-5.686 2.215-4.74 5.194l2.501 7.878c-17.598 12.187-28.79 31.942-30.154 53.308-12.857-16.288-32.755-26.773-55.069-26.773-38.679 0-70.148 31.468-70.148 70.148v38.457c-12.861-16.183-32.694-26.59-54.924-26.59-38.679 0-70.148 31.468-70.148 70.148v80.989c0 4.204 3.408 7.612 7.611 7.612s7.611-3.408 7.611-7.612v-80.992c0-30.285 24.639-54.925 54.925-54.925s54.924 24.639 54.924 54.925v19.478c0 4.204 3.408 7.611 7.611 7.611 4.204 0 7.611-3.408 7.611-7.611v-101.492c0-30.285 24.639-54.925 54.925-54.925s54.925 24.639 54.925 54.925v19.478c0 4.204 3.408 7.611 7.611 7.611 4.204 0 7.612-3.408 7.612-7.611v-58.435c0-16.443 7.479-31.997 19.959-42.346l2.143 6.748c.946 2.979 4.761 3.816 6.868 1.508l21.217-23.252c2.107-2.309.925-6.032-2.127-6.702z" fill="#a2b9e2"/></g></svg>